<svg width="146" height="72" viewBox="0 0 146 72" fill="none" xmlns="http://www.w3.org/2000/svg">
<path d="M27.252 32.768C29.7 32.768 31.668 33.524 33.156 35.036C34.668 36.524 35.424 38.612 35.424 41.3V53H30.384V41.984C30.384 40.424 29.988 39.236 29.196 38.42C28.404 37.58 27.324 37.16 25.956 37.16C24.588 37.16 23.496 37.58 22.68 38.42C21.888 39.236 21.492 40.424 21.492 41.984V53H16.452V41.984C16.452 40.424 16.056 39.236 15.264 38.42C14.472 37.58 13.392 37.16 12.024 37.16C10.632 37.16 9.528 37.58 8.712 38.42C7.92 39.236 7.524 40.424 7.524 41.984V53H2.484V33.056H7.524V35.468C8.172 34.628 9 33.968 10.008 33.488C11.04 33.008 12.168 32.768 13.392 32.768C14.952 32.768 16.344 33.104 17.568 33.776C18.792 34.424 19.74 35.36 20.412 36.584C21.06 35.432 21.996 34.508 23.22 33.812C24.468 33.116 25.812 32.768 27.252 32.768ZM49.0627 53.324C47.1427 53.324 45.4147 52.904 43.8787 52.064C42.3427 51.2 41.1307 49.988 40.2427 48.428C39.3787 46.868 38.9467 45.068 38.9467 43.028C38.9467 40.988 39.3907 39.188 40.2787 37.628C41.1907 36.068 42.4267 34.868 43.9867 34.028C45.5467 33.164 47.2867 32.732 49.2067 32.732C51.1267 32.732 52.8667 33.164 54.4267 34.028C55.9867 34.868 57.2107 36.068 58.0987 37.628C59.0107 39.188 59.4667 40.988 59.4667 43.028C59.4667 45.068 58.9987 46.868 58.0627 48.428C57.1507 49.988 55.9027 51.2 54.3187 52.064C52.7587 52.904 51.0067 53.324 49.0627 53.324ZM49.0627 48.932C49.9747 48.932 50.8267 48.716 51.6187 48.284C52.4347 47.828 53.0827 47.156 53.5627 46.268C54.0427 45.38 54.2827 44.3 54.2827 43.028C54.2827 41.132 53.7787 39.68 52.7707 38.672C51.7867 37.64 50.5747 37.124 49.1347 37.124C47.6947 37.124 46.4827 37.64 45.4987 38.672C44.5387 39.68 44.0587 41.132 44.0587 43.028C44.0587 44.924 44.5267 46.388 45.4627 47.42C46.4227 48.428 47.6227 48.932 49.0627 48.932ZM71.4797 48.356L76.5197 33.056H81.8837L74.5037 53H68.3837L61.0397 33.056H66.4397L71.4797 48.356ZM87.2705 30.68C86.3825 30.68 85.6385 30.404 85.0385 29.852C84.4625 29.276 84.1745 28.568 84.1745 27.728C84.1745 26.888 84.4625 26.192 85.0385 25.64C85.6385 25.064 86.3825 24.776 87.2705 24.776C88.1585 24.776 88.8905 25.064 89.4665 25.64C90.0665 26.192 90.3665 26.888 90.3665 27.728C90.3665 28.568 90.0665 29.276 89.4665 29.852C88.8905 30.404 88.1585 30.68 87.2705 30.68ZM89.7545 33.056V53H84.7145V33.056H89.7545ZM113.274 42.596C113.274 43.316 113.226 43.964 113.13 44.54H98.55C98.67 45.98 99.174 47.108 100.062 47.924C100.95 48.74 102.042 49.148 103.338 49.148C105.21 49.148 106.542 48.344 107.334 46.736H112.77C112.194 48.656 111.09 50.24 109.458 51.488C107.826 52.712 105.822 53.324 103.446 53.324C101.526 53.324 99.798 52.904 98.262 52.064C96.75 51.2 95.562 49.988 94.698 48.428C93.858 46.868 93.438 45.068 93.438 43.028C93.438 40.964 93.858 39.152 94.698 37.592C95.538 36.032 96.714 34.832 98.226 33.992C99.738 33.152 101.478 32.732 103.446 32.732C105.342 32.732 107.034 33.14 108.522 33.956C110.034 34.772 111.198 35.936 112.014 37.448C112.854 38.936 113.274 40.652 113.274 42.596ZM108.054 41.156C108.03 39.86 107.562 38.828 106.65 38.06C105.738 37.268 104.622 36.872 103.302 36.872C102.054 36.872 100.998 37.256 100.134 38.024C99.294 38.768 98.778 39.812 98.586 41.156H108.054Z" fill="#CECACA"/>
<path d="M135.592 53L128.2 39.944H125.032V53H118.312V19.496H130.888C133.48 19.496 135.688 19.96 137.512 20.888C139.336 21.784 140.696 23.016 141.592 24.584C142.52 26.12 142.984 27.848 142.984 29.768C142.984 31.976 142.344 33.976 141.064 35.768C139.784 37.528 137.88 38.744 135.352 39.416L143.368 53H135.592ZM125.032 34.904H130.648C132.472 34.904 133.832 34.472 134.728 33.608C135.624 32.712 136.072 31.48 136.072 29.912C136.072 28.376 135.624 27.192 134.728 26.36C133.832 25.496 132.472 25.064 130.648 25.064H125.032V34.904Z" fill="#E50914"/>
</svg>
